<svg width="48" height="47" viewBox="0 0 48 47" fill="none" xmlns="http://www.w3.org/2000/svg">
<circle cx="23.9999" cy="23.0209" r="22.5209" fill="#02122B" stroke="white"/>
<path d="M24.0017 19.8974C23.1731 19.8974 22.3784 20.2265 21.7925 20.8124C21.2066 21.3984 20.8774 22.193 20.8774 23.0216C20.8774 23.8502 21.2066 24.6449 21.7925 25.2308C22.3784 25.8167 23.1731 26.1459 24.0017 26.1459C24.8303 26.1459 25.625 25.8167 26.2109 25.2308C26.7968 24.6449 27.1259 23.8502 27.1259 23.0216C27.1259 22.193 26.7968 21.3984 26.2109 20.8124C25.625 20.2265 24.8303 19.8974 24.0017 19.8974ZM24.0017 17.8145C25.3827 17.8145 26.7071 18.3631 27.6837 19.3397C28.6602 20.3162 29.2088 21.6406 29.2088 23.0216C29.2088 24.4026 28.6602 25.7271 27.6837 26.7036C26.7071 27.6801 25.3827 28.2287 24.0017 28.2287C22.6207 28.2287 21.2962 27.6801 20.3197 26.7036C19.3432 25.7271 18.7946 24.4026 18.7946 23.0216C18.7946 21.6406 19.3432 20.3162 20.3197 19.3397C21.2962 18.3631 22.6207 17.8145 24.0017 17.8145ZM30.7709 17.5542C30.7709 17.8994 30.6338 18.2305 30.3896 18.4747C30.1455 18.7188 29.8144 18.8559 29.4691 18.8559C29.1239 18.8559 28.7928 18.7188 28.5486 18.4747C28.3045 18.2305 28.1674 17.8994 28.1674 17.5542C28.1674 17.2089 28.3045 16.8778 28.5486 16.6337C28.7928 16.3895 29.1239 16.2524 29.4691 16.2524C29.8144 16.2524 30.1455 16.3895 30.3896 16.6337C30.6338 16.8778 30.7709 17.2089 30.7709 17.5542ZM24.0017 14.6903C21.4252 14.6903 21.0045 14.6976 19.8058 14.7507C18.9893 14.7892 18.4415 14.8985 17.9333 15.0964C17.508 15.2526 17.1235 15.5028 16.8086 15.8285C16.4826 16.1435 16.232 16.5279 16.0754 16.9533C15.8776 17.4636 15.7682 18.0103 15.7307 18.8257C15.6766 19.9755 15.6693 20.3775 15.6693 23.0216C15.6693 25.5992 15.6766 26.0188 15.7297 27.2175C15.7682 28.033 15.8776 28.5818 16.0744 29.089C16.2514 29.542 16.4597 29.8679 16.8055 30.2137C17.1564 30.5636 17.4824 30.7729 17.9302 30.9458C18.4447 31.1447 18.9924 31.2551 19.8048 31.2926C20.9545 31.3468 21.3565 31.353 24.0006 31.353C26.5782 31.353 26.9978 31.3457 28.1965 31.2926C29.0109 31.2541 29.5587 31.1447 30.068 30.9479C30.4929 30.791 30.8772 30.5408 31.1927 30.2158C31.5437 29.8659 31.753 29.5399 31.9259 29.091C32.1237 28.5787 32.2341 28.0309 32.2716 27.2165C32.3258 26.0678 32.332 25.6648 32.332 23.0216C32.332 20.4452 32.3247 20.0244 32.2716 18.8257C32.2331 18.0114 32.1227 17.4615 31.9259 16.9533C31.7689 16.5284 31.5187 16.1441 31.1937 15.8285C30.8789 15.5024 30.4944 15.2518 30.069 15.0954C29.5587 14.8975 29.0109 14.7882 28.1965 14.7507C27.0478 14.6965 26.6458 14.6903 24.0006 14.6903M24.0006 12.6074C26.8302 12.6074 27.1832 12.6178 28.2944 12.6699C29.4025 12.722 30.1586 12.8959 30.8219 13.1542C31.5093 13.4187 32.0883 13.7769 32.6673 14.3549C33.1969 14.8755 33.6067 15.5053 33.8681 16.2003C34.1253 16.8637 34.3003 17.6198 34.3524 18.7289C34.4013 19.8391 34.4148 20.1921 34.4148 23.0216C34.4148 25.8512 34.4044 26.2042 34.3524 27.3144C34.3003 28.4235 34.1253 29.1785 33.8681 29.8429C33.6074 30.5384 33.1975 31.1683 32.6673 31.6883C32.1466 32.2177 31.5169 32.6274 30.8219 32.8891C30.1586 33.1463 29.4025 33.3213 28.2944 33.3734C27.1832 33.4223 26.8302 33.4358 24.0006 33.4358C21.1711 33.4358 20.8181 33.4254 19.7069 33.3734C18.5988 33.3213 17.8438 33.1463 17.1793 32.8891C16.484 32.6282 15.8541 32.2184 15.3339 31.6883C14.8043 31.1678 14.3945 30.538 14.1332 29.8429C13.8749 29.1796 13.701 28.4235 13.6489 27.3144C13.5989 26.2042 13.5864 25.8512 13.5864 23.0216C13.5864 20.1921 13.5968 19.8391 13.6489 18.7289C13.701 17.6198 13.8749 16.8648 14.1332 16.2003C14.3938 15.5048 14.8036 14.8749 15.3339 14.3549C15.8543 13.8251 16.4841 13.4153 17.1793 13.1542C17.8427 12.8959 18.5977 12.722 19.7069 12.6699C20.8191 12.621 21.1721 12.6074 24.0017 12.6074" fill="#DFE2E7"/>
</svg>
