<svg width="47" height="47" viewBox="0 0 47 47" fill="none" xmlns="http://www.w3.org/2000/svg">
<circle cx="23.0209" cy="23.0209" r="22.5209" fill="#02122B" stroke="white"/>
<path d="M22.9852 26.4083L26.2272 30.0943C27.4272 31.4593 28.0282 32.1423 28.6572 31.9753C29.2852 31.8093 29.5012 30.9113 29.9322 29.1143L32.3222 19.1463C32.9872 16.3783 33.3192 14.9953 32.5812 14.3123C31.8432 13.6293 30.5642 14.1373 28.0062 15.1523L16.1402 19.8653C14.0942 20.6783 13.0712 21.0843 13.0062 21.7823C12.9986 21.8534 12.9986 21.9252 13.0062 21.9963C13.0692 22.6953 14.0902 23.1043 16.1342 23.9233C17.0592 24.2943 17.5222 24.4803 17.8542 24.8353C17.8916 24.8753 17.9276 24.9166 17.9622 24.9593C18.2682 25.3393 18.3982 25.8393 18.6592 26.8353L19.1482 28.7023C19.4012 29.6723 19.5282 30.1583 19.8612 30.2243C20.1942 30.2903 20.4832 29.8883 21.0622 29.0833L22.9852 26.4083ZM22.9852 26.4083L22.6682 26.0783C22.3062 25.7003 22.1252 25.5123 22.1252 25.2783C22.1252 25.0443 22.3052 24.8553 22.6682 24.4783L26.2412 20.7543" stroke="white" stroke-width="1.5" stroke-linecap="round" stroke-linejoin="round"/>
</svg>
